<?xml version="1.0" encoding="UTF-8" standalone="no"?>
<svg xmlns="http://www.w3.org/2000/svg" version="1.1" overflow="visible" preserveAspectRatio="xMidYMid meet" viewBox="0 0 1 1">
  <defs>
    <linearGradient id="primary-0"><stop stop-color="#FFFFFF"/></linearGradient>
    <linearGradient id="primary-1"><stop stop-color="#17144a"/></linearGradient>
  </defs>
  <path
    d="M0,0 0.2,0 0.2,0.88A 0.05,0.05 0 0 0 0.25,0.93L0.32,0.93 0.32,1 0,1 0,0.93 0.07,0.93A 0.05,0.05 0 0 0 0.12,0.88L0.12,0.12A0.05,0.05 0 0 0 0.07,0.07L0,0.07ZM1,0 1,0.07 0.93,0.07A0.05,0.05 0 0 0 0.88,0.12L0.88,1 0.8,1 0.8,0.12A0.05,0.05 0 0 0 0.75,0.07L0.68,0.07 0.68,0Z
    M0.78,1 0.27,0 0.36,0 0.88,1Z
    M0.22,0 0.73,1 0.64,1 0.12,0Z"
    style="fill:url(#primary-1);"
    transform="translate(0.15,0.005)scale(0.7)"/>

  <path
    d="M0.13,0.765h0.72v0.0125h-0.72ZM0.22 0.87L0.186 0.829V0.87H0.178V0.814H0.184L0.217 0.855V0.814H0.225V0.87ZM0.28 0.87L0.275 0.856H0.251L0.245 0.87H0.237L0.26 0.814H0.266L0.289 0.87ZM0.263 0.827L0.254 0.848H0.271ZM0.315 0.844H0.308V0.87H0.3V0.814H0.32Q0.327 0.814 0.331 0.817 0.336 0.822 0.336 0.829 0.336 0.836 0.331 0.84 0.328 0.843 0.324 0.843L0.344 0.87H0.335ZM0.308 0.836H0.32Q0.324 0.836 0.326 0.834 0.328 0.832 0.328 0.829 0.328 0.826 0.326 0.824 0.324 0.822 0.32 0.822H0.308ZM0.37 0.844H0.364V0.87H0.356V0.814H0.375Q0.382 0.814 0.386 0.817 0.392 0.822 0.392 0.829 0.392 0.836 0.386 0.84 0.383 0.843 0.38 0.843L0.4 0.87H0.39ZM0.364 0.836H0.375Q0.38 0.836 0.382 0.834 0.384 0.832 0.384 0.829 0.384 0.826 0.382 0.824 0.38 0.822 0.375 0.822H0.364ZM0.449 0.87L0.443 0.856H0.42L0.414 0.87H0.405L0.429 0.814H0.434L0.457 0.87ZM0.431 0.827L0.423 0.848H0.44ZM0.514 0.836V0.86Q0.51 0.865 0.505 0.868 0.499 0.871 0.492 0.871 0.48 0.871 0.472 0.863 0.463 0.854 0.463 0.842 0.463 0.83 0.471 0.822 0.48 0.813 0.492 0.813 0.498 0.813 0.503 0.816 0.508 0.818 0.512 0.822L0.507 0.827Q0.504 0.824 0.5 0.823 0.496 0.821 0.492 0.821 0.483 0.821 0.477 0.827 0.471 0.833 0.471 0.842 0.471 0.851 0.477 0.857 0.483 0.863 0.492 0.863 0.501 0.863 0.506 0.858V0.844H0.49V0.836ZM0.566 0.87L0.56 0.856H0.537L0.531 0.87H0.522L0.546 0.814H0.551L0.574 0.87ZM0.548 0.827L0.54 0.848H0.557ZM0.628 0.87L0.594 0.829V0.87H0.586V0.814H0.592L0.625 0.855V0.814H0.633V0.87ZM0.647 0.861L0.652 0.856Q0.658 0.863 0.666 0.863 0.67 0.863 0.673 0.861 0.676 0.858 0.676 0.855 0.676 0.851 0.673 0.849 0.67 0.846 0.664 0.844 0.659 0.842 0.656 0.84 0.649 0.836 0.649 0.828 0.649 0.822 0.654 0.818 0.659 0.813 0.666 0.813 0.675 0.813 0.681 0.819L0.677 0.825Q0.672 0.821 0.667 0.821 0.663 0.821 0.66 0.823 0.657 0.825 0.657 0.828 0.657 0.832 0.66 0.834 0.663 0.836 0.669 0.838 0.674 0.84 0.676 0.842 0.684 0.847 0.684 0.855 0.684 0.862 0.679 0.866 0.674 0.871 0.666 0.871 0.655 0.871 0.647 0.861ZM0.706 0.836H0.725V0.844H0.706V0.862H0.731V0.87H0.698V0.814H0.73V0.822H0.706ZM0.739 0.822V0.814H0.778V0.822H0.762V0.87H0.754V0.822ZM0.786 0.822V0.814H0.824V0.822H0.809V0.87H0.801V0.822ZM0.278 0.95H0.29Q0.297 0.95 0.299 0.948 0.302 0.945 0.302 0.941 0.302 0.937 0.299 0.934 0.297 0.932 0.29 0.932H0.278ZM0.278 0.924H0.288Q0.293 0.924 0.295 0.922 0.297 0.92 0.297 0.917 0.297 0.914 0.295 0.912 0.293 0.91 0.288 0.91H0.278ZM0.292 0.958H0.27V0.902H0.289Q0.296 0.902 0.301 0.906 0.305 0.91 0.305 0.917 0.305 0.922 0.301 0.927 0.305 0.929 0.307 0.933 0.31 0.937 0.31 0.941 0.31 0.949 0.304 0.954 0.299 0.958 0.292 0.958ZM0.328 0.951Q0.32 0.942 0.32 0.93 0.32 0.918 0.328 0.91 0.336 0.901 0.348 0.901 0.36 0.901 0.368 0.91 0.376 0.918 0.376 0.93 0.376 0.942 0.368 0.951 0.36 0.959 0.348 0.959 0.336 0.959 0.328 0.951ZM0.328 0.93Q0.328 0.939 0.334 0.945 0.34 0.951 0.348 0.951 0.357 0.951 0.362 0.945 0.368 0.939 0.368 0.93 0.368 0.921 0.362 0.915 0.357 0.909 0.348 0.909 0.34 0.909 0.334 0.915 0.328 0.921 0.328 0.93ZM0.426 0.958L0.42 0.944H0.396L0.39 0.958H0.382L0.405 0.902H0.411L0.434 0.958ZM0.408 0.915L0.399 0.936H0.417ZM0.435 0.91V0.902H0.473V0.91H0.458V0.958H0.45V0.91ZM0.504 0.93Q0.504 0.918 0.512 0.91 0.521 0.901 0.533 0.901 0.539 0.901 0.544 0.904 0.549 0.906 0.553 0.91L0.548 0.915Q0.545 0.912 0.541 0.911 0.537 0.909 0.533 0.909 0.524 0.909 0.518 0.915 0.512 0.921 0.512 0.93 0.512 0.939 0.518 0.945 0.524 0.951 0.533 0.951 0.543 0.951 0.549 0.943L0.555 0.948Q0.551 0.953 0.546 0.956 0.54 0.959 0.533 0.959 0.521 0.959 0.513 0.951 0.504 0.942 0.504 0.93ZM0.576 0.902V0.95H0.601V0.958H0.568V0.902ZM0.651 0.951Q0.644 0.959 0.634 0.959 0.623 0.959 0.616 0.951 0.61 0.945 0.61 0.935V0.902H0.618V0.935Q0.618 0.942 0.622 0.946 0.626 0.951 0.634 0.951 0.641 0.951 0.645 0.946 0.649 0.942 0.649 0.935V0.902H0.657V0.935Q0.657 0.945 0.651 0.951ZM0.682 0.95H0.695Q0.701 0.95 0.704 0.948 0.706 0.945 0.706 0.941 0.706 0.937 0.704 0.934 0.701 0.932 0.695 0.932H0.682ZM0.682 0.924H0.692Q0.698 0.924 0.7 0.922 0.702 0.92 0.702 0.917 0.702 0.914 0.7 0.912 0.698 0.91 0.692 0.91H0.682ZM0.696 0.958H0.674V0.902H0.693Q0.701 0.902 0.705 0.906 0.71 0.91 0.71 0.917 0.71 0.922 0.705 0.927 0.709 0.929 0.712 0.933 0.714 0.937 0.714 0.941 0.714 0.949 0.708 0.954 0.704 0.958 0.696 0.958Z"
    fill="url(#primary-1)"/>

</svg>
